Coordinates
version=1
nRows=18
nColumns=19
inDegrees=yes

Units are S.I. units (second, meters, Newtons, ...)
If the header above contains a line with 'inDegrees', this indicates whether rotational values are in degrees (yes) or radians (no).

endheader
time	pelvis_obliquity	pelvis_rotation	pelvis_tilt	pelvis_to_ground_tx	pelvis_to_ground_ty	pelvis_to_ground_tz	left_hip_abduction	left_hip_rotation	left_hip_flexion	left_knee_flexion	left_ankle_flexion	left_subtalar_angle	right_hip_abduction	right_hip_rotation	right_hip_flexion	right_knee_flexion	right_ankle_flexion	right_subtalar_angle
      5.28000000	     82.32832666	      5.01935446	     -4.88120231	      0.87554407	     -0.57346839	      0.59492833	      9.69459712	    -14.65584209	     37.73483200	    -23.58912874	    -19.37807132	    -16.61319221	     13.67860392	     18.60128169	      5.26878128	    -12.30859863	     -7.21801060	    -12.07730920
      5.29000000	     82.27714171	      4.32480020	     -4.69077006	      0.88612378	     -0.57402218	      0.59276159	     10.34109917	    -15.70053976	     36.93247394	    -22.36320336	    -19.45713596	    -17.11951287	     13.72969451	     17.87887748	      5.36749403	    -14.40765431	     -7.79062250	    -11.42184083
      5.30000000	     82.38390809	      3.69014437	     -4.56237792	      0.89675017	     -0.57448108	      0.59068153	     10.70479914	    -16.67956898	     36.08147516	    -21.49861556	    -19.33930423	    -17.50047667	     13.48349671	     17.03647150	      5.71891388	    -16.66763080	     -8.57490052	    -10.70350256
      5.31000000	     82.66009877	      3.11973485	     -4.45694146	      0.90737143	     -0.57481725	      0.58872770	     10.73335760	    -17.50594853	     35.16368733	    -20.97552563	    -19.07876731	    -17.59016538	     12.92882716	     16.04059583	      6.30100460	    -19.08064572	     -9.40888917	    -10.32859378
      5.32000000	     83.12917325	      2.55938702	     -4.46772430	      0.91795685	     -0.57497457	      0.58707347	     10.46686760	    -18.16775952	     34.20837282	    -20.60331940	    -18.51695330	    -17.70190749	     12.06011945	     15.16299584	      7.12380790	    -21.47775909	    -10.96328145	     -9.20243369
      5.33000000	     83.72571738	      2.09268416	     -4.47565509	      0.92842698	     -0.57500194	      0.58567731	      9.95029797	    -18.67071477	     33.17822056	    -20.39335009	    -17.90757736	    -17.56229812	     10.97294600	     14.20990826	      8.11616626	    -23.88682573	    -12.50115966	     -8.38257657
      5.34000000	     84.44346137	      1.71781772	     -4.52836907	      0.93874182	     -0.57489580	      0.58464866	      9.26189597	    -19.07255079	     32.09232562	    -20.17292969	    -17.21880146	    -17.23043904	      9.69556294	     13.28828559	      9.28590852	    -26.21504450	    -14.21749262	     -7.59040915
      5.35000000	     85.20874108	      1.42582706	     -4.55907881	      0.94885936	     -0.57468509	      0.58399630	      8.44076616	    -19.23064966	     30.93093297	    -19.93613888	    -16.45142106	    -16.64138447	      8.34239945	     12.42373303	     10.55097048	    -28.42743760	    -16.10738223	     -6.80999791
      5.36000000	     86.05953242	      1.26348407	     -4.67096703	      0.95872342	     -0.57436064	      0.58384734	      7.60755196	    -19.54236948	     29.72677413	    -19.43620438	    -15.79130881	    -15.98731387	      6.88239824	     11.65563550	     11.99210120	    -30.45738516	    -17.79396592	     -6.17797978
      5.37000000	     86.88133501	      1.20220486	     -4.72748043	      0.96831555	     -0.57397961	      0.58410080	      6.73799026	    -19.63453733	     28.45800886	    -18.84623242	    -15.16781541	    -15.15596530	      5.46329569	     10.91162369	     13.47708141	    -32.33711433	    -19.45132273	     -5.59874857
      5.38000000	     87.69419791	      1.30317785	     -4.78955721	      0.97758458	     -0.57353698	      0.58479891	      5.92685507	    -19.92915834	     27.14195910	    -18.03095680	    -14.85188873	    -14.66585252	      4.06837329	     10.14212849	     15.05177909	    -34.03953932	    -20.32381209	     -5.38444239
      5.39000000	     88.40178345	      1.43832497	     -4.88020845	      0.98658273	     -0.57309682	      0.58598833	      5.18724873	    -19.98025210	     25.81560371	    -17.01569042	    -14.43115394	    -13.62589296	      2.82995704	      9.63832207	     16.66892155	    -35.46099841	    -21.77677351	     -4.81820320
      5.40000000	     89.03717436	      1.72848212	     -4.94912059	      0.99526032	     -0.57265271	      0.58754123	      4.53830386	    -20.28523649	     24.44387260	    -15.83620206	    -14.26539523	    -13.00923381	      1.70974012	      9.11790382	     18.31196230	    -36.70066396	    -22.31457708	     -4.69387948
      5.41000000	     89.53679926	      2.13001344	     -4.96143413	      1.00364219	     -0.57224342	      0.58935454	      3.95800038	    -20.51314851	     23.07154070	    -14.65105850	    -14.21754599	    -12.61852304	      0.77182899	      8.52729925	     19.94225973	    -37.78444495	    -22.55388491	     -4.69090277
      5.42000000	     89.90214286	      2.61830268	     -4.95998337	      1.01175456	     -0.57188511	      0.59141897	      3.47866537	    -20.79273369	     21.70103879	    -13.41550869	    -14.27931342	    -12.23607359	      0.02800560	      8.00450947	     21.56612234	    -38.68197270	    -22.60990843	     -4.73536416
      5.43000000	     90.14804915	      3.12347290	     -4.91289811	      1.01961800	     -0.57156096	      0.59360038	      3.03134407	    -20.89213898	     20.34998972	    -12.25197667	    -14.33834869	    -12.01903388	     -0.55249579	      7.55786051	     23.17704672	    -39.47701195	    -22.50955047	     -4.86078635
      5.44000000	     90.22977354	      3.84858979	     -4.79978022	      1.02730508	     -0.57137450	      0.59589659	      2.75379281	    -21.37921658	     18.93450363	    -11.03633053	    -14.92112577	    -11.69014368	     -0.88596487	      6.89403884	     24.68059989	    -40.09785790	    -21.63804019	     -5.22816127
      5.45000000	     90.20748123	      4.62027079	     -4.68352079	      1.03478912	     -0.57124356	      0.59813361	      2.53898666	    -21.77554378	     17.62185482	     -9.97153247	    -15.15354233	    -11.64235854	     -1.07763910	      6.16776370	     26.21411996	    -40.69137608	    -20.96765524	     -5.57416140
